<?xml version="1.0" encoding="UTF-8" standalone="no"?>
<svg
   version="1.0"
   width="392.77563pt"
   height="376.45306pt"
   viewBox="0 0 392.77564 376.45306"
   preserveAspectRatio="xMidYMid"
   id="svg13"
   xmlns="http://www.w3.org/2000/svg"
   xmlns:svg="http://www.w3.org/2000/svg">
  <defs
     id="defs13" />
  <g
     transform="matrix(0.1,0,0,-0.1,-323.51512,769.35521)"
     fill="#000000"
     stroke="none"
     id="g13">
    <path
       d="m 4662.5684,4901.9434 c -14.1881,0.7378 -28.3199,2.4952 -42.1524,5.3691 -76.6647,15.6869 -185.3015,87.5576 -226.6035,152.1191 -37.1142,57.8132 -204.3512,554.4761 -379.1523,1084.7989 -147.6075,447.2166 -223.6136,680.3679 -235.9903,727.0371 -0.7334,2.7656 -3.0703,10.6773 -3.0703,17.7324 0,18.7873 13.4745,28.0453 17.959,30.6152 9.5668,5.4826 23.8808,6.6849 28.4531,7.1797 83.9099,9.0816 465.1276,10.9078 552.1641,2.5762 4.3805,-0.4193 22.0456,-1.317 33.5508,-9.3594 5.104,-3.6276 8.9273,-8.277 10.3574,-10.2656 13.2084,-18.3677 31.4042,-71.2214 41.664,-104.6524 l 0.068,-0.2207 0.065,-0.2226 c 14.0389,-48.0323 83.7845,-278.66 154.3515,-509.5977 l 0.02,-0.066 0.019,-0.066 c 68.0191,-225.8728 132.097,-440.379 147.3476,-491.8847 28.2107,80.5244 69.8604,203.4415 121.5489,360.707 l 0.01,0.025 157.0097,475.164 182.0157,3.4649 182.7851,2.3203 91.8321,-275.877 0.01,-0.023 c 46.0238,-138.968 112.5849,-342.1724 147.3984,-450.2715 l -0.06,0.1914 c 14.1719,-43.1437 26.3107,-78.0949 37.6621,-110.457 5.257,16.8902 10.6964,34.625 16.2578,54.1465 l 0.074,0.2558 0.076,0.2539 c 23.4471,77.7295 79.7475,267.8485 125.8027,421.918 l -0.059,-0.2031 c 44.9966,153.9488 105.5426,354.6002 131.9649,445 l 0.023,0.082 55.416,186.2129 71.2734,10.1602 0.3418,0.041 c 71.8527,8.7798 463.8329,8.9569 540.0176,2.5644 3.8697,-0.3247 15.5106,-0.8614 24.3906,-4.9961 3.8157,-1.7766 20.4395,-10.8603 20.4395,-31.7148 0,-6.5769 -2.6912,-14.9387 -2.9883,-15.9688 -10.0254,-34.7646 -65.4908,-206.2659 -122.457,-382.6054 l -0.031,-0.098 -0.031,-0.094 c -68.1955,-206.9543 -152.331,-466.7044 -188.1934,-573.8848 l -0.088,-0.2656 c -216.9585,-666.3293 -266.4567,-824.6282 -327.6562,-894.8809 -15.619,-17.9295 -32.2439,-30.9418 -49.5586,-44.9492 l -0.1113,-0.09 -0.1133,-0.09 c -66.1623,-52.6175 -123.0149,-74.3521 -200.9649,-75.4726 h -0.01 -0.01 c -78.1207,-1.091 -140.172,17.0388 -200.4825,60.3828 -66.6282,47.191 -98.3839,101.0245 -158.5292,260.9023 l -0.067,0.1817 -0.066,0.1816 c -27.4135,75.43 -86.8075,232.6 -129.8144,347.7109 l 0.061,-0.1582 c -24.6524,65.01 -46.2435,124.7838 -63.0586,171.5 -25.1678,-62.5385 -61.9324,-157.3778 -106.7871,-278.2695 l 0.01,0.021 c -141.3831,-381.8587 -150.1776,-400.2778 -192.1641,-453.9746 -55.6913,-72.8889 -164.9821,-115.191 -262.1718,-110.1367 z"
       id="path31"
       style="fill:#e7e7e7;fill-opacity:1;stroke-width:1.01143"
       transform="matrix(0.97770831,0,0,1,84.678609,0)" />
    <path
       d="m 4400.334,3929.0313 c -70.1752,-0.9948 -125.488,79.6006 -94.4199,147.164 2.8248,6.182 8.036,12.0603 9.9277,14.1192 23.9054,26.018 118.6623,102.6904 203.5293,166.9355 95.3942,72.4981 186.7405,137.9131 221.332,151.6621 3.4171,1.3582 10.8606,3.8053 17.1641,4.1992 l 0.4668,0.029 0.4668,0.018 c 83.4442,2.9279 140.406,-87.7114 94.9062,-157.6973 -25.0067,-38.6931 -313.5548,-249.1836 -360.1191,-281.5312 -19.1562,-13.3076 -48.4643,-33.3623 -62.0391,-38.7207 l -0.035,-0.014 -0.035,-0.014 c -10.2654,-4.0256 -20.7298,-6.0027 -31.1445,-6.1503 z m 1597.1562,0 c -10.4147,0.1476 -20.8791,2.1247 -31.1445,6.1503 l -0.035,0.014 -0.035,0.014 c -13.5747,5.3584 -42.8828,25.4131 -62.0391,38.7207 -46.5643,32.3476 -335.1124,242.8381 -360.1191,281.5312 -45.4998,69.9859 11.462,160.6252 94.9062,157.6973 l 0.4668,-0.018 0.4668,-0.029 c 6.3035,-0.3939 13.747,-2.841 17.1641,-4.1992 34.5916,-13.749 125.9378,-79.164 221.332,-151.6621 l 0.053,-0.039 c 84.8538,-64.2371 179.5759,-140.8837 203.4765,-166.8964 1.8917,-2.0589 7.1029,-7.9372 9.9278,-14.1192 31.0681,-67.5634 -24.2448,-148.1588 -94.42,-147.164 z"
       id="path32"
       style="fill:#e7e7e7;fill-opacity:1"
       transform="matrix(0.99050348,0,0,-1,52.748311,8342.2495)" />
    <path
       d="m 5254.9707,4211.625 c -12.5746,0.4195 -23.2414,6.6852 -24.6914,7.3672 -62.3289,29.317 -361.4722,199.3635 -670.0606,379.1933 l -680.998,396.8536 -3.3164,288.6328 -2.3516,307.3242 100.6446,-9.6152 c 49.1924,-4.3435 81.0624,-12.4885 107.6953,-36.8614 18.9519,-16.8924 31.267,-29.8592 34.375,-86.1093 1.6383,-29.6517 1.6328,-77.721 1.6328,-149.4082 v -168.1368 l 433.8535,-252.0566 0.065,-0.039 c 247.0758,-144.9833 508.9112,-298.1617 581.4492,-339.8379 l 0.2441,-0.1406 113.5137,-67.7129 201.7148,117.7344 c 119.5904,70.0914 384.3829,223.1961 587.0235,340.0859 l -0.1211,-0.068 350.4199,204.0156 v 226.1563 c 0,151.6191 1.0349,227.5996 10.8926,262.8847 2.7803,9.9522 6.5011,18.3592 11.8769,25.9903 20.8637,29.6162 40.3119,36.6347 115.7305,36.6347 h 105.5547 V 5340.002 5000.5254 l -54.7969,-33.084 -0.027,-0.016 c -22.0033,-13.2294 -181.4324,-106.1219 -332.9922,-194.2559 l -0.07,-0.041 -0.068,-0.039 c -161.4538,-92.8886 -441.4707,-255.8667 -623.8457,-360.9453 l -0.072,-0.043 c -152.944,-88.6215 -304.8692,-175.8515 -339.6367,-193.67 -1.3192,-0.676 -7.3595,-3.4526 -12.2617,-5.0898 -3.8284,-1.1685 -7.6902,-1.8397 -11.375,-1.7168 z"
       id="path20"
       style="fill:#e7e7e7;fill-opacity:1;stroke:#005a9c;stroke-width:1.01469;stroke-dasharray:none;stroke-opacity:1"
       transform="matrix(0.97141959,0,0,1.000004,93.12188,-0.02323573)" />
    <path
       d="m 3982,3955.9863 c -137.5551,0 -205.8214,15.0534 -294.7598,65.416 l -0.059,0.033 -0.057,0.033 c -68.5126,39.15 -154.4039,128.1343 -190.4492,199.1269 -0,0 -0,0.01 -0,0.01 -57.1487,112.223 -60.6856,133.9488 -60.6856,526.3965 v 387.0137 H 3528 c 56.4668,0 78.6367,-6.5489 104.0508,-31.9629 l 0.5722,-0.5723 0.545,-0.5996 c 5.2687,-5.7956 10.8671,-12.0989 15.9687,-23.9668 15.5263,-36.1186 14.8203,-135.5872 16.875,-361.6113 l 2.9238,-331.4688 30.8262,-56.3672 c 0.01,-0.013 0.014,-0.022 0.021,-0.035 24.278,-43.8799 42.9645,-64.8434 79.791,-91.5977 31.1292,-21.4832 58.3822,-33.9569 92.8653,-41.0078 34.5715,-7.0689 77.1737,-8.2825 136.0371,-3.9043 l 0.1172,0.01 125.4199,8.4551 V 4076 3955.9863 Z m 2291.8672,0 V 4076 4199.3828 l 125.4199,-8.4551 0.1172,-0.01 c 58.8634,-4.3782 101.4656,-3.1646 136.0371,3.9043 34.483,7.0509 61.736,19.5246 92.8652,41.0078 36.8266,26.7543 55.513,47.7178 79.7911,91.5977 0.01,0.013 0.014,0.023 0.021,0.035 l 30.8262,56.3672 2.9238,331.4766 c 2.0547,226.015 1.3487,325.4849 16.875,361.6035 5.1017,11.8679 10.7001,18.1712 15.9688,23.9668 l 0.5449,0.5996 0.5723,0.5723 c 25.414,25.414 47.5839,31.9629 104.0508,31.9629 h 92.0136 V 4747 c 0,-392.4477 -3.5368,-414.1735 -60.6855,-526.3965 l -0,-0.01 c -36.0453,-70.9926 -121.9366,-159.9769 -190.4492,-199.1269 l -0.057,-0.033 -0.059,-0.033 c -88.9383,-50.3626 -157.2047,-65.416 -294.7597,-65.416 z"
       id="path21"
       style="fill:#e7e7e7;fill-opacity:1;stroke:#005a9c;stroke-dasharray:none;stroke-opacity:1"
       transform="matrix(1.0001706,0,0,0.99999995,-0.88672361,2.9398201e-4)" />
    <path
       d="m 3541.8906,5187.1191 c -26.0026,0.5612 -51.5775,10.9829 -71.9375,29.8848 -18.0237,16.4189 -28.872,31.226 -32.1054,73.293 -1.7305,22.513 -1.8614,56.1953 -1.8614,104.7031 v 113.9434 l -53.3281,39.7968 0.293,-0.2148 c -35.3423,25.7903 -83.2084,62.8612 -102.5489,80.0527 l 0.5918,-0.5136 -45.0078,38.1875 V 5870 6074.8008 l 111.3633,85.2246 83.7793,63.916 4.8594,577.3613 v 0.016 c 3.2072,342.3684 6.3375,560.4445 14.9375,610.3886 0.7168,4.1627 2.3162,13.0873 7.1582,20.9922 9.9417,17.3325 33.9399,43.1081 50.9902,58.4004 35.9862,33.3318 227.8392,172.0987 269.4024,190.1094 l 0.6172,0.2676 0.6269,0.2421 c 41.056,15.8927 113.2276,13.9345 159.4219,1.043 l 0.5527,-0.1543 0.5469,-0.1738 c 30.843,-9.7399 153.3316,-86.2838 218.4199,-128.9981 95.852,-62.9028 264.7985,-172.8681 374.875,-244.9179 l 0.031,-0.02 c 0.017,-0.011 0.041,-0.028 0.059,-0.039 l 191.455,-124.4453 H 4831 c 114.2856,0 134.8483,-3.8188 159.3477,-31.3418 37.8227,-42.2227 36.3209,-114.7476 -7.7579,-150.9551 l -0.582,-0.4766 -0.5996,-0.4511 c -28.9239,-21.693 -57.3014,-24.8028 -177.4082,-24.8028 h -144.0313 l -121.6855,78.6114 -0.2559,0.1738 c -60.453,40.6324 -165.511,108.6766 -231.5937,151.7305 l -0.065,0.041 -0.062,0.043 c -29.8762,19.6555 -56.1688,35.7598 -77.6367,47.8125 -16.1009,9.0396 -29.562,15.8081 -39.2109,19.9532 -4.8245,2.0725 -14.5111,4.6347 -11.459,4.6347 -13.1716,0 -19.3241,-3.36 -24.5469,-9.1875 -5.2228,-5.8275 -10.0721,-16.5024 -10.4472,-34.5078 l -0,-0.1387 -0,-0.1386 c -2.2924,-79.0905 -13.8995,-100.0954 -120.4101,-181.0879 l -0.045,-0.033 -103.1407,-77.9063 H 3793 3692.0879 l -24.0371,-24.0371 -24.0371,-24.0371 V 6537 6115.8574 l -113.7813,-84.1992 -86.2187,-63.8027 V 5868 5767.8711 l 86.6523,-65.8555 113.3477,-87.2773 V 5429 c 0,-110.7161 0.6279,-164.4007 -15.0821,-193.5469 -4.5739,-8.4859 -9.9741,-14.5972 -14.8808,-19.5039 -19.9361,-19.9361 -45.7495,-29.4001 -72.1602,-28.8301 z m 3314.2696,0 c -26.4107,-0.57 -52.2241,8.894 -72.1602,28.8301 -4.9067,4.9067 -10.3069,11.018 -14.8809,19.5039 -15.7099,29.1462 -15.082,82.8308 -15.082,193.5469 v 185.7383 l 113.3477,87.2773 86.6523,65.8555 V 5868 v 99.8555 l -86.2187,63.8027 -113.7813,84.1992 V 6537 6927.9121 l -24.0371,24.0371 -24.0371,24.0371 h -100.9121 -126.4024 l -103.1406,77.9063 -0.045,0.033 c -106.5107,80.9925 -118.1177,101.9974 -120.4102,181.0879 l -0,0.1386 -0,0.1387 c -0.3751,18.0054 -5.2245,28.6803 -10.4472,34.5078 -5.2228,5.8275 -11.3753,9.1875 -24.5469,9.1875 3.0521,0 -6.6345,-2.5622 -11.459,-4.6347 -9.6489,-4.1451 -23.11,-10.9136 -39.2109,-19.9532 -21.468,-12.0527 -47.7605,-28.157 -77.6368,-47.8125 l -0.062,-0.043 -0.064,-0.041 c -66.0827,-43.0539 -171.1407,-111.0981 -231.5938,-151.7305 l -0.2558,-0.1738 -121.6856,-78.6114 h -144.0312 c -120.1068,0 -148.4843,3.1098 -177.4082,24.8028 l -0.5996,0.4511 -0.5821,0.4766 c -44.0787,36.2075 -45.5805,108.7324 -7.7578,150.9551 24.4994,27.523 45.0621,31.3418 159.3477,31.3418 h 105.9179 l 191.545,124.5039 c 110.0765,72.0498 279.023,182.0151 374.875,244.9179 65.0883,42.7143 187.5769,119.2582 218.4199,128.9981 l 0.5469,0.1738 0.5527,0.1543 c 46.1943,12.8915 118.3659,14.8497 159.4219,-1.043 l 0.6269,-0.2421 0.6172,-0.2676 c 41.5631,-18.0107 233.4162,-156.7776 269.4024,-190.1094 17.0503,-15.2923 41.0484,-41.0679 50.9902,-58.4004 4.842,-7.9049 6.4414,-16.8295 7.1582,-20.9922 8.6,-49.9441 11.7303,-268.0202 14.9375,-610.3886 v -0.016 l 4.8594,-577.3613 83.7793,-63.916 111.3633,-85.2246 V 5870 5666.252 l -45.0079,-38.1875 0.5918,0.5136 c -19.3404,-17.1915 -67.2065,-54.2624 -102.5488,-80.0527 l 0.293,0.2148 -53.3281,-39.7968 V 5395 c 0,-48.5078 -0.1309,-82.1901 -1.8614,-104.7031 -3.2334,-42.067 -14.0817,-56.8741 -32.1054,-73.293 -20.3601,-18.9019 -45.935,-29.3236 -71.9375,-29.8848 z M 3714.0137,7194.0137 H 3783 c 49.8866,0 75.49,0.7427 88.7031,3.4375 13.2069,2.6935 17.8395,5.9544 37.3125,20.0722 0.01,0.01 0.01,0.01 0.02,0.014 l 27.5078,20.3047 -2.545,99.2871 -2.1699,84.6289 -52.5156,1.2363 c -0.015,3e-4 -0.019,-3e-4 -0.033,0 -49.3507,0.9964 -72.2885,0.4008 -84.6426,-3.0957 -12.3577,-3.4974 -22.3902,-10.9589 -50.332,-33.4121 l -0.1035,-0.084 -30.1875,-23.8691 V 7269 Z m 2901.0371,0 h 68.9863 V 7269 v 93.5332 l -30.1875,23.8691 -0.1035,0.084 c -27.9418,22.4532 -37.9743,29.9147 -50.332,33.4121 -12.3541,3.4965 -35.2919,4.0921 -84.6426,3.0957 h -0.033 l -52.5156,-1.2363 -2.17,-84.6289 -2.5449,-99.2871 27.5078,-20.3047 0.02,-0.014 c 19.473,-14.1178 24.1055,-17.3787 37.3125,-20.0722 13.2131,-2.6948 38.8165,-3.4375 88.7031,-3.4375 z"
       id="path22"
       style="fill:#e7e7e7;fill-opacity:1;stroke:#005a9c;stroke-miterlimit:4;stroke-dasharray:none;stroke-opacity:1"
       transform="matrix(1.0001706,0,0,0.99999995,-0.88672361,2.9398201e-4)" />
    <path
       d="M 3542.625,5221.125 C 3525.25,5221.5 3507.5,5228.5 3493,5242 c -22,20 -23,28 -23,153 v 131 l -67,50 c -37,27 -82,62 -100,78 l -33,28 v 188 188 l 98,75 97,74 5,594 c 4,427 8,600 17,614 6,11 26,34 45,51 42,39 230,171 260,184 31,12 95,12 138,0 19,-6 114,-62 210,-125 96,-63 265,-173 375,-245 l 200,-130 h 116 c 103,0 118,-2 134,-20 26,-29 24,-79 -4,-102 -20,-15 -42,-18 -157,-18 h -134 l -113,73 c -61,41 -166,109 -232,152 -76,50 -130,78 -147,78 -42,0 -68,-29 -69,-77 -2,-69 -11,-82 -107,-155 l -94,-71 h -115 -115 l -34,-34 -34,-34 v -405 -404 l -100,-74 -100,-74 v -117 -117 l 100,-76 100,-77 v -169 c 0,-156 -2,-171 -20,-189 -13,-13 -30,-19.25 -47.375,-18.875 z m 3312.8008,0 c -17.375,-0.375 -34.375,5.875 -47.375,18.875 -18,18 -20,33 -20,189 v 169 l 100,77 100,76 v 117 117 l -100,74 -100,74 v 404 405 l -34,34 -34,34 h -115 -115 l -94,71 c -96,73 -105,86 -107,155 -1,48 -27,77 -69,77 -17,0 -71,-28 -147,-78 -66,-43 -171,-111 -232,-152 l -113,-73 h -134 c -115,0 -137,3 -157,18 -28,23 -30,73 -4,102 16,18 31,20 134,20 h 116 l 200,130 c 110,72 279,182 375,245 96,63 191,119 210,125 43,12 107,12 138,0 30,-13 218,-145 260,-184 19,-17 39,-40 45,-51 9,-14 13,-187 17,-614 l 5,-594 97,-74 98,-75 v -188 -188 l -33,-28 c -18,-16 -63,-51 -100,-78 l -67,-50 v -131 c 0,-125 -1,-133 -23,-153 -14.5,-13.5 -32.25,-20.5 -49.625,-20.875 z M 3680,7160 h 103 c 100,0 106,1 146,30 l 42,31 -3,117 -3,117 -85,2 c -99,2 -101,1 -157,-44 l -43,-34 v -110 z m 2935.0508,0 h 103 v 109 110 l -43,34 c -56,45 -58,46 -157,44 l -85,-2 -3,-117 -3,-117 42,-31 c 40,-29 46,-30 146,-30 z"
       id="path2"
       style="fill:#000000;fill-opacity:1;stroke:#005a9c;stroke-miterlimit:4;stroke-dasharray:none;stroke-opacity:1" />
    <path
       d="m 3810,6889 c 0,-11 61,-204 232,-734 222,-689 340,-1034 367,-1077 35,-56 133,-123 200,-137 94,-20 211,21 264,92 39,51 48,72 183,445 70,193 131,352 135,352 4,0 9,-8 12,-17 3,-10 39,-112 82,-228 42,-115 100,-272 127,-348 57,-155 85,-203 143,-245 53,-39 106,-55 176,-54 68,1 117,20 176,68 87,72 83,60 358,924 35,107 117,366 184,574 66,209 121,383 121,388 0,9 -462,9 -534,0 l -48,-7 -48,-165 c -26,-91 -85,-291 -129,-445 -45,-154 -100,-344 -123,-422 -22,-79 -44,-143 -47,-143 -4,0 -35,89 -70,198 -34,108 -99,311 -144,450 l -82,252 -154,-2 -154,-3 -146,-452 c -80,-249 -148,-453 -152,-453 -3,0 -16,37 -28,83 -13,45 -79,271 -147,502 -69,231 -137,461 -151,510 -15,50 -32,93 -38,97 -17,13 -565,10 -565,-3 z"
       id="path4"
       style="display:inline;fill:#f74c00;fill-opacity:1" />
    <path
       d="m 6346,5638 c -13,-19 -16,-62 -16,-269 v -246 l -357,-214 c -197,-117 -454,-270 -570,-340 l -213,-128 -127,78 c -71,42 -325,195 -565,340 l -438,262 v 188 c 0,185 0,188 -24,210 -18,17 -41,24 -85,28 l -61,6 2,-269 3,-269 645,-387 c 355,-213 651,-385 659,-382 8,2 159,91 335,196 177,105 449,268 606,361 157,94 302,181 323,194 l 37,23 v 320 320 h -69 c -61,0 -72,-3 -85,-22 z"
       id="path5"
       style="fill:#000000;fill-opacity:1;stroke:#005a9c;stroke-dasharray:none;stroke-opacity:1" />
    <path
       d="m 3470,4747 c 0,-382 2,-403 57,-511 33,-65 114,-149 177,-185 83,-47 146,-61 278,-61 h 118 v 86 87 l -89,-6 c -121,-9 -183,4 -251,51 -40,29 -64,56 -90,103 l -35,64 -3,340 c -3,330 -4,341 -24,363 -18,18 -32,22 -80,22 h -58 z m 3467.881,0 c 0,-382 -2,-403 -57,-511 -33,-65 -114,-149 -177,-185 -83,-47 -146,-61 -278,-61 h -118 v 86 87 l 89,-6 c 121,-9 183,4 251,51 40,29 64,56 90,103 l 35,64 3,340 c 3,330 4,341 24,363 18,18 32,22 80,22 h 58 z"
       id="path6"
       style="fill:#000000;fill-opacity:1;stroke:#005a9c;stroke-dasharray:none;stroke-opacity:1" />
    <path
       d="m 4540,4230 c -107,-81 -198,-157 -203,-168 -24,-52 31,-115 82,-95 38,15 388,279 406,307 30,46 -8,107 -65,105 -16,-1 -95,-54 -220,-149 z m 1317.8238,0 c 107,-81 198,-157 203,-168 24,-52 -31,-115 -82,-95 -38,15 -388,279 -406,307 -30,46 8,107 65,105 16,-1 95,-54 220,-149 z"
       id="path7"
       style="fill:#f74c00;fill-opacity:1"
       transform="matrix(1,0,0,-1,0,8342.2495)" />
    <path
       d="M 3542.625,5221.125 C 3525.25,5221.5 3507.5,5228.5 3493,5242 c -22,20 -23,28 -23,153 v 131 l -67,50 c -37,27 -82,62 -100,78 l -33,28 v 188 188 l 98,75 97,74 5,594 c 4,427 8,600 17,614 6,11 26,34 45,51 42,39 230,171 260,184 31,12 95,12 138,0 19,-6 114,-62 210,-125 96,-63 265,-173 375,-245 l 200,-130 h 116 c 103,0 118,-2 134,-20 26,-29 24,-79 -4,-102 -20,-15 -42,-18 -157,-18 h -134 l -113,73 c -61,41 -166,109 -232,152 -76,50 -130,78 -147,78 -42,0 -68,-29 -69,-77 -2,-69 -11,-82 -107,-155 l -94,-71 h -115 -115 l -34,-34 -34,-34 v -405 -404 l -100,-74 -100,-74 v -117 -117 l 100,-76 100,-77 v -169 c 0,-156 -2,-171 -20,-189 -13,-13 -30,-19.25 -47.375,-18.875 z m 3312.8008,0 c -17.375,-0.375 -34.375,5.875 -47.375,18.875 -18,18 -20,33 -20,189 v 169 l 100,77 100,76 v 117 117 l -100,74 -100,74 v 404 405 l -34,34 -34,34 h -115 -115 l -94,71 c -96,73 -105,86 -107,155 -1,48 -27,77 -69,77 -17,0 -71,-28 -147,-78 -66,-43 -171,-111 -232,-152 l -113,-73 h -134 c -115,0 -137,3 -157,18 -28,23 -30,73 -4,102 16,18 31,20 134,20 h 116 l 200,130 c 110,72 279,182 375,245 96,63 191,119 210,125 43,12 107,12 138,0 30,-13 218,-145 260,-184 19,-17 39,-40 45,-51 9,-14 13,-187 17,-614 l 5,-594 97,-74 98,-75 v -188 -188 l -33,-28 c -18,-16 -63,-51 -100,-78 l -67,-50 v -131 c 0,-125 -1,-133 -23,-153 -14.5,-13.5 -32.25,-20.5 -49.625,-20.875 z M 3680,7160 h 103 c 100,0 106,1 146,30 l 42,31 -3,117 -3,117 -85,2 c -99,2 -101,1 -157,-44 l -43,-34 v -110 z m 2935.0508,0 h 103 v 109 110 l -43,34 c -56,45 -58,46 -157,44 l -85,-2 -3,-117 -3,-117 42,-31 c 40,-29 46,-30 146,-30 z"
       id="path16"
       style="fill:#000000;fill-opacity:1;stroke:#005a9c;stroke-miterlimit:4;stroke-dasharray:none;stroke-opacity:1" />
  </g>
</svg>
