<?xml version="1.0" encoding="UTF-8" standalone="no"?>
<svg
   version="1.0"
   width="388.20609pt"
   height="373.02948pt"
   viewBox="0 0 388.20608 373.02948"
   preserveAspectRatio="xMidYMid"
   id="svg13"
   xmlns="http://www.w3.org/2000/svg"
   xmlns:svg="http://www.w3.org/2000/svg">
  <defs
     id="defs13" />
  <g
     transform="matrix(0.1,0,0,-0.1,-325.79955,767.07101)"
     fill="#000000"
     stroke="none"
     id="g13">
    <path
       d="m 4663.1641,4913.3965 c -13.6569,0.7102 -27.2029,2.396 -40.4356,5.1465 -74.0082,15.1373 -179.7508,85.3004 -219.2656,147.082 -34.4145,53.6042 -188.9317,508.8528 -377.9102,1082.1875 -152.527,462.1217 -223.4998,680.0181 -235.7988,726.3945 -0.7053,2.6596 -2.6875,9.9063 -2.6875,14.793 0,25.3436 32.037,25.9462 36.1797,26.3945 19.1638,2.0741 53.799,3.7496 93.6777,4.9649 138.9324,4.2338 400.2087,4.3473 461.9903,-3.0254 3.5734,-0.4264 14.691,-1.4565 22.1894,-6.7051 3.5393,-2.5422 6.5307,-5.994 7.6699,-7.5781 11.5063,-16.0006 28.9826,-65.3782 40.0137,-101.3223 l 0.045,-0.1465 0.043,-0.1484 c 14.1332,-48.3549 83.8172,-278.774 154.3906,-509.7324 l 0.014,-0.043 0.014,-0.045 c 69.4366,-230.5802 137.075,-456.9836 150.4121,-502.1133 l 0.086,-0.293 0.078,-0.2929 c 2.5275,-9.4707 4.5328,-14.3399 7.0469,-22.7676 26.2564,73.234 74.7637,216.3803 133.1465,394.0137 l 0.01,0.017 154.457,467.4434 173.8574,3.3105 174.3692,2.2129 89.1835,-267.9179 0.01,-0.016 c 46.0219,-138.9621 112.5115,-341.9459 147.3281,-450.0527 17.8533,-54.351 34.6913,-103.7247 47.4864,-139.2656 0.536,-1.489 0.8572,-2.2614 1.3789,-3.7012 8.071,24.2952 17.27,53.0128 26.9785,87.0918 l 0.049,0.1699 0.051,0.1699 c 23.4743,77.8197 79.7642,267.899 125.8125,421.9454 45.0119,153.9975 105.4425,354.2635 131.9238,444.8652 l 0.016,0.055 53.3125,179.1426 63.8829,9.1054 0.2285,0.029 c 69.6375,8.5091 461.7351,8.889 537.6679,2.5176 3.9567,-0.332 13.9569,-0.9118 20.5098,-3.9629 2.6621,-1.2395 13.8125,-7.3023 13.8125,-21.3203 0,-4.9795 -2.2169,-11.6673 -2.541,-12.791 -9.7219,-33.7121 -65.3829,-205.9189 -122.3496,-382.2598 l -0.021,-0.062 -0.021,-0.064 c -68.221,-207.0318 -152.4084,-466.9405 -188.2051,-573.9219 l -0.059,-0.1777 c -219.5013,-674.1378 -266.7499,-823.6284 -325.4277,-890.9864 -14.9207,-17.1279 -30.6033,-29.3915 -48.125,-43.5664 l -0.074,-0.06 -0.074,-0.059 c -64.1187,-50.9922 -118.9758,-71.9039 -194.002,-72.9824 -76.3251,-1.0659 -135.1134,16.1583 -193.6758,58.2597 -64.1619,45.4382 -94.9128,97.3572 -154.4414,255.5957 l -0.047,0.1211 -0.043,0.1211 c -27.4826,75.62 -86.8565,232.7327 -129.8496,347.8067 l 0.041,-0.1055 c -33.5163,88.3844 -61.5738,165.6897 -73.3399,199.418 -23.3806,-56.4612 -66.7929,-168.3095 -117.9726,-306.2481 l -0,-0.01 c -8e-4,-0 -0,-0 -0,-0.01 -140.3008,-378.9354 -149.2144,-398.1676 -190.5019,-450.9649 -52.9903,-69.3695 -158.2666,-110.5596 -252.4785,-105.6601 z"
       id="path31"
       style="fill:#e7e7e7;fill-opacity:1;stroke-width:1.01143"
       transform="matrix(0.97770831,0,0,1,84.678609,0)" />
    <path
       d="m 4400.1719,3940.4238 c -61.6079,-0.8733 -111.623,70.8425 -83.8867,131.0625 2.3799,5.2046 5.8979,8.8909 7.9453,11.1192 22.3514,24.3267 114.3283,99.1809 202.0175,165.5625 100.5259,76.3985 186.7231,137.4615 218.6622,150.1562 3.4869,1.386 8.2985,3.0824 13.6679,3.418 l 0.3106,0.018 0.3125,0.012 c 74.632,2.6187 125.2654,-78.1437 84.9394,-140.1289 -18.0723,-27.9927 -221.1532,-179.9352 -279.3652,-222.6328 -28.7513,-21.0887 -55.5398,-40.3369 -77.6875,-55.7227 -20.7838,-14.4382 -47.9501,-32.8334 -59.7227,-37.4805 l -0.023,-0.01 -0.023,-0.01 c -8.9853,-3.5236 -18.0742,-5.2347 -27.1465,-5.3633 z m 1597.4804,0 c -9.0723,0.1286 -18.1612,1.8397 -27.1464,5.3633 l -0.024,0.01 -0.023,0.01 c -11.7725,4.6471 -38.9389,23.0423 -59.7227,37.4805 -22.1477,15.3858 -48.9362,34.634 -77.6875,55.7227 -58.212,42.6976 -261.2929,194.6401 -279.3652,222.6328 -40.326,61.9852 10.3074,142.7476 84.9394,140.1289 l 0.3125,-0.012 0.3106,-0.018 c 5.3694,-0.3356 10.181,-2.032 13.668,-3.418 31.939,-12.6947 118.1362,-73.7577 218.6621,-150.1562 l 0.035,-0.027 c 87.6787,-66.3749 179.634,-141.2117 201.9824,-165.5351 2.0474,-2.2283 5.5655,-5.9146 7.9454,-11.1192 27.7363,-60.22 -22.2789,-131.9358 -83.8868,-131.0625 z"
       id="path32"
       style="fill:#e7e7e7;fill-opacity:1"
       transform="matrix(0.99050348,0,0,-1,52.748311,8342.2495)" />
    <path
       d="m 5255.373,4234.6367 c -4.6339,0.1594 -12.1209,3.8616 -15.2304,5.3242 -60.2773,28.3521 -344.3734,189.5037 -668.2559,378.2461 l -669.6445,390.2383 -3.1641,275.4473 -2.1543,281.5918 75.2364,-7.1875 c 0,-2e-4 0,2e-4 0.01,0 46.4306,-4.1001 73.0308,-11.5799 94.1211,-30.8985 4.8384,-4.3088 9.8006,-8.8358 13.7168,-14.3925 15.637,-22.1879 14.7227,-61.6051 14.7227,-204.0039 v -181.4727 l 445.3418,-258.7344 0.021,-0.012 c 247.0943,-144.9941 508.7166,-298.0518 581.6329,-339.9453 l 0.08,-0.047 125.0938,-74.6191 213.5254,124.6269 c 119.4647,70.0181 384.1855,223.0834 586.9199,340.0274 l 361.8945,210.6953 v 239.4805 c 0,160.5117 1.6329,226.5654 10.0371,256.6484 2.2028,7.8846 4.939,13.8184 8.5039,18.8789 9.5708,13.5858 19.5245,21.2215 41.0372,24.4141 12.8868,1.9124 31.2709,2.3945 55.748,2.3945 h 82.3809 V 5340.002 5013.6055 l -43.5821,-26.3145 -0.01,-0 c -21.8816,-13.1562 -173.5747,-101.5519 -332.7012,-194.0859 l -0.022,-0.012 -0.023,-0.014 c -161.5831,-92.963 -441.6228,-255.9549 -623.9063,-360.9805 l -0.025,-0.014 c -158.0068,-91.5552 -305.4838,-176.136 -338.6367,-193.1269 -1.7738,-0.9091 -5.9865,-2.994 -8.6406,-3.793 -1.6564,-0.4807 -3.2487,-0.6516 -4.0235,-0.625 z"
       id="path20"
       style="fill:#e7e7e7;fill-opacity:1;stroke:#005a9c;stroke-width:1.01469;stroke-dasharray:none;stroke-opacity:1"
       transform="matrix(0.97141959,0,0,1.000004,93.12188,-0.02323573)" />
    <path
       d="m 3982,3978.8262 c -133.8275,0 -198.5656,14.3505 -283.5059,62.4492 l -0.019,0.012 -0.019,0.012 c -64.8851,37.0772 -147.3666,122.5807 -181.4121,189.6309 -55.7166,109.4071 -58.2168,130.5686 -58.2168,516.0703 v 364.1738 H 3528 c 50.9474,0 67.5078,-4.8769 87.9023,-25.2715 l 0.1875,-0.1894 0.1778,-0.1953 c 4.3565,-4.7922 8.5167,-9.7854 11.8867,-17.625 2.6041,-6.0579 4.5417,-13.3824 6.0742,-23.0176 6.0578,-38.0874 7.0552,-121.8616 8.9453,-329.7773 l 2.9746,-337.1954 33.6563,-61.541 c 25.4252,-45.95 47.6698,-70.9531 86.6191,-99.2129 33.0627,-22.8419 63.8375,-37.0125 101.4395,-44.7011 37.629,-7.6941 82.3463,-8.7628 142.3086,-4.3028 l 0.037,0 100.9648,6.8066 V 4076 3978.8262 Z m 2314.707,0 V 4076 v 98.9531 l 100.9649,-6.8066 0.037,-0 c 59.9623,-4.46 104.6796,-3.3913 142.3086,4.3028 37.602,7.6886 68.3768,21.8592 101.4394,44.7011 38.9493,28.2598 61.1939,53.2629 86.6192,99.2129 l 33.6562,61.541 2.9746,337.1993 c 1.8901,207.9128 2.8876,291.686 8.9453,329.7734 1.5325,9.6352 3.4702,16.9597 6.0743,23.0176 3.37,7.8396 7.5302,12.8328 11.8867,17.625 l 0.1777,0.1953 0.1875,0.1894 c 20.3946,20.3946 36.955,25.2715 87.9024,25.2715 h 69.1738 V 4747 c 0,-385.5017 -2.5002,-406.6632 -58.2168,-516.0703 -34.0456,-67.0502 -116.5271,-152.5537 -181.4121,-189.6309 l -0.02,-0.012 -0.02,-0.012 c -84.9402,-48.0987 -149.6783,-62.4492 -283.5058,-62.4492 z"
       id="path21"
       style="fill:#e7e7e7;fill-opacity:1;stroke:#005a9c;stroke-dasharray:none;stroke-opacity:1"
       transform="matrix(1.0001706,0,0,0.99999995,-0.88672361,2.9398201e-4)" />
    <path
       d="m 3542.3848,5209.9531 c -20.2148,0.4363 -40.5326,8.5605 -56.961,23.8399 -14.8018,13.466 -22.1247,23.3876 -24.8047,58.2539 -1.6352,21.2744 -1.7929,53.7109 -1.7929,102.9531 v 125.3965 l -62.5098,46.6484 c -36.6321,26.7351 -82.1865,62.1114 -100.7402,78.6035 l 0.1933,-0.1699 -36.9433,31.3477 V 5870 6063.5195 l 102.3886,78.3594 92.6582,70.6875 4.9532,588.5332 v 0.01 c 3.4597,369.3241 6.8842,561.8744 14.6074,606.7265 0.6588,3.826 1.8399,9.3927 4.0781,12.9981 7.4568,13.3559 28.882,37.2303 46.959,53.4179 39.1779,36.3507 228.5986,171.0614 263.0859,186.0059 l 0.2032,0.088 0.207,0.08 c 34.429,13.3273 101.0598,12.6145 145.0371,0.3418 l 0.1816,-0.051 0.1797,-0.057 c 23.7343,-7.495 130.6767,-72.4435 212.7657,-126.3144 95.9513,-62.9681 264.9338,-172.9563 374.9589,-244.9727 l 0.029,-0.02 197.1934,-128.1758 H 4831 c 79.373,0 110.7535,-0.6633 129.7949,-12.748 4.9813,-3.1614 8.9105,-6.9056 12.541,-10.9883 29.8682,-33.3381 28.0578,-90.7187 -5.2422,-118.0723 l -0.1914,-0.1562 -0.1972,-0.1485 c -22.9273,-17.1954 -46.7109,-20.2343 -163.7051,-20.2343 h -137.2949 l -115.8535,74.8437 -0.086,0.057 c -60.8203,40.8792 -165.838,108.8924 -231.8652,151.9101 l -0.022,0.014 -0.021,0.014 c -45.3419,29.8302 -82.7932,51.7399 -108.5351,64.2265 -10.2968,4.9947 -18.7508,8.4719 -24.6856,10.3086 -3.9565,1.2245 -6.8799,1.627 -7.6367,1.627 -18.4281,0 -31.8632,-5.9718 -41.5527,-16.7832 -9.6895,-10.8115 -15.8165,-27.2449 -16.2754,-49.2754 v -0.045 l -0,-0.047 c -0.8092,-27.9173 -2.7576,-48.533 -11.9648,-67.8321 -13.6217,-28.552 -42.5991,-52.5144 -99.4414,-95.7382 l -0.014,-0.012 -97.0039,-73.2675 H 3793 3682.6309 l -30.7286,-30.7285 -30.7285,-30.7286 V 6537 6127.3672 l -104.5273,-77.3496 -95.4727,-70.6504 V 5868 5756.543 l 95.6153,-72.668 104.3847,-80.377 V 5429 c 0,-119.0381 -0.5629,-160.8508 -12.3457,-182.7109 -3.1384,-5.8227 -6.8831,-10.1488 -10.9258,-14.1914 -15.2965,-15.2966 -35.1496,-22.5842 -55.5175,-22.1446 z m 3313.2812,0 c -20.3679,-0.4396 -40.221,6.848 -55.5176,22.1446 -4.0426,4.0426 -7.7873,8.3687 -10.9257,14.1914 -11.7828,21.8601 -12.3457,63.6728 -12.3457,182.7109 v 174.498 l 104.3847,80.377 95.6153,72.668 V 5868 5979.3672 l -95.4727,70.6504 -104.5273,77.3496 V 6537 6937.3691 l -30.7286,30.7286 -30.7285,30.7285 h -110.3691 -118.7461 l -97.0039,73.2675 -0.014,0.012 c -56.8423,43.2238 -85.8198,67.1862 -99.4414,95.7382 -9.2072,19.2991 -11.1556,39.9148 -11.9648,67.8321 l -0,0.047 v 0.045 c -0.459,22.0305 -6.5859,38.4639 -16.2754,49.2754 -9.6895,10.8114 -23.1246,16.7832 -41.5527,16.7832 -0.7568,0 -3.6802,-0.4025 -7.6367,-1.627 -5.9349,-1.8367 -14.3888,-5.3139 -24.6856,-10.3086 -25.742,-12.4866 -63.1932,-34.3963 -108.5351,-64.2265 l -0.021,-0.014 -0.021,-0.014 c -66.0272,-43.0177 -171.0449,-111.0309 -231.8652,-151.9101 l -0.086,-0.057 -115.8535,-74.8437 h -137.2949 c -116.9943,0 -140.7778,3.0389 -163.7051,20.2343 l -0.1973,0.1485 -0.1914,0.1562 c -33.2999,27.3536 -35.1103,84.7342 -5.2422,118.0723 3.6306,4.0827 7.5598,7.8269 12.5411,10.9883 19.0414,12.0847 50.4218,12.748 129.7949,12.748 h 112.6875 l 197.2226,128.1953 c 110.0252,72.0164 279.0077,182.0046 374.959,244.9727 82.089,53.8709 189.0314,118.8194 212.7656,126.3144 l 0.1797,0.057 0.1817,0.051 c 43.9773,12.2727 110.6081,12.9855 145.0371,-0.3418 l 0.207,-0.08 0.2031,-0.088 c 34.4874,-14.9445 223.9081,-149.6552 263.086,-186.0059 18.077,-16.1876 39.5022,-40.062 46.959,-53.4179 2.2382,-3.6054 3.4193,-9.1721 4.0781,-12.9981 7.7232,-44.8521 11.1477,-237.4024 14.6074,-606.7265 v -0.01 l 4.9531,-588.5332 92.6582,-70.6875 102.3887,-78.3594 V 5870 5676.8262 l -36.9434,-31.3477 0.1934,0.1699 c -18.5537,-16.4921 -64.1082,-51.8684 -100.7402,-78.6035 l -0.096,-0.072 -62.4141,-46.5762 V 5395 c 0,-49.2422 -0.1577,-81.6787 -1.793,-102.9531 -2.6799,-34.8663 -10.0028,-44.7879 -24.8046,-58.2539 -16.4284,-15.2794 -36.7462,-23.4036 -56.961,-23.8399 z M 3691.1738,7171.1738 H 3783 c 49.9628,0 76.1688,0.4132 93.2676,3.9004 17.0938,3.4863 26.3376,9.5919 46.1601,23.9629 0.01,0 0.01,0.01 0.014,0.01 l 37.2402,27.4863 -2.8515,111.1797 -2.7266,106.3652 -74.3672,1.75 c -49.4289,0.9983 -73.9186,0.9694 -91.3183,-3.9551 -17.4053,-4.926 -30.4371,-15.0993 -58.418,-37.5839 l -0.035,-0.027 -38.791,-30.6738 V 7269 Z m 2923.877,0 h 91.8262 V 7269 7373.5879 l -38.7911,30.6738 -0.035,0.027 c -27.9809,22.4846 -41.0127,32.6579 -58.418,37.5839 -17.3997,4.9245 -41.8894,4.9534 -91.3183,3.9551 h -0.037 l -74.33,-1.75 -2.7266,-106.3652 -2.8516,-111.1797 37.2403,-27.4863 0.014,-0.01 c 19.8226,-14.371 29.0664,-20.4766 46.1602,-23.9629 17.0988,-3.4872 43.3048,-3.9004 93.2676,-3.9004 z"
       id="path22"
       style="fill:#e7e7e7;fill-opacity:1;stroke:#005a9c;stroke-miterlimit:4;stroke-dasharray:none;stroke-opacity:1"
       transform="matrix(1.0001706,0,0,0.99999995,-0.88672361,2.9398201e-4)" />
    <path
       d="M 3542.625,5221.125 C 3525.25,5221.5 3507.5,5228.5 3493,5242 c -22,20 -23,28 -23,153 v 131 l -67,50 c -37,27 -82,62 -100,78 l -33,28 v 188 188 l 98,75 97,74 5,594 c 4,427 8,600 17,614 6,11 26,34 45,51 42,39 230,171 260,184 31,12 95,12 138,0 19,-6 114,-62 210,-125 96,-63 265,-173 375,-245 l 200,-130 h 116 c 103,0 118,-2 134,-20 26,-29 24,-79 -4,-102 -20,-15 -42,-18 -157,-18 h -134 l -113,73 c -61,41 -166,109 -232,152 -76,50 -130,78 -147,78 -42,0 -68,-29 -69,-77 -2,-69 -11,-82 -107,-155 l -94,-71 h -115 -115 l -34,-34 -34,-34 v -405 -404 l -100,-74 -100,-74 v -117 -117 l 100,-76 100,-77 v -169 c 0,-156 -2,-171 -20,-189 -13,-13 -30,-19.25 -47.375,-18.875 z m 3312.8008,0 c -17.375,-0.375 -34.375,5.875 -47.375,18.875 -18,18 -20,33 -20,189 v 169 l 100,77 100,76 v 117 117 l -100,74 -100,74 v 404 405 l -34,34 -34,34 h -115 -115 l -94,71 c -96,73 -105,86 -107,155 -1,48 -27,77 -69,77 -17,0 -71,-28 -147,-78 -66,-43 -171,-111 -232,-152 l -113,-73 h -134 c -115,0 -137,3 -157,18 -28,23 -30,73 -4,102 16,18 31,20 134,20 h 116 l 200,130 c 110,72 279,182 375,245 96,63 191,119 210,125 43,12 107,12 138,0 30,-13 218,-145 260,-184 19,-17 39,-40 45,-51 9,-14 13,-187 17,-614 l 5,-594 97,-74 98,-75 v -188 -188 l -33,-28 c -18,-16 -63,-51 -100,-78 l -67,-50 v -131 c 0,-125 -1,-133 -23,-153 -14.5,-13.5 -32.25,-20.5 -49.625,-20.875 z M 3680,7160 h 103 c 100,0 106,1 146,30 l 42,31 -3,117 -3,117 -85,2 c -99,2 -101,1 -157,-44 l -43,-34 v -110 z m 2935.0508,0 h 103 v 109 110 l -43,34 c -56,45 -58,46 -157,44 l -85,-2 -3,-117 -3,-117 42,-31 c 40,-29 46,-30 146,-30 z"
       id="path2"
       style="fill:#000000;fill-opacity:1;stroke:#005a9c;stroke-miterlimit:4;stroke-dasharray:none;stroke-opacity:1" />
    <path
       d="m 3810,6889 c 0,-11 61,-204 232,-734 222,-689 340,-1034 367,-1077 35,-56 133,-123 200,-137 94,-20 211,21 264,92 39,51 48,72 183,445 70,193 131,352 135,352 4,0 9,-8 12,-17 3,-10 39,-112 82,-228 42,-115 100,-272 127,-348 57,-155 85,-203 143,-245 53,-39 106,-55 176,-54 68,1 117,20 176,68 87,72 83,60 358,924 35,107 117,366 184,574 66,209 121,383 121,388 0,9 -462,9 -534,0 l -48,-7 -48,-165 c -26,-91 -85,-291 -129,-445 -45,-154 -100,-344 -123,-422 -22,-79 -44,-143 -47,-143 -4,0 -35,89 -70,198 -34,108 -99,311 -144,450 l -82,252 -154,-2 -154,-3 -146,-452 c -80,-249 -148,-453 -152,-453 -3,0 -16,37 -28,83 -13,45 -79,271 -147,502 -69,231 -137,461 -151,510 -15,50 -32,93 -38,97 -17,13 -565,10 -565,-3 z"
       id="path4"
       style="display:inline;fill:#f74c00;fill-opacity:1" />
    <path
       d="m 6346,5638 c -13,-19 -16,-62 -16,-269 v -246 l -357,-214 c -197,-117 -454,-270 -570,-340 l -213,-128 -127,78 c -71,42 -325,195 -565,340 l -438,262 v 188 c 0,185 0,188 -24,210 -18,17 -41,24 -85,28 l -61,6 2,-269 3,-269 645,-387 c 355,-213 651,-385 659,-382 8,2 159,91 335,196 177,105 449,268 606,361 157,94 302,181 323,194 l 37,23 v 320 320 h -69 c -61,0 -72,-3 -85,-22 z"
       id="path5"
       style="fill:#000000;fill-opacity:1;stroke:#005a9c;stroke-dasharray:none;stroke-opacity:1" />
    <path
       d="m 3470,4747 c 0,-382 2,-403 57,-511 33,-65 114,-149 177,-185 83,-47 146,-61 278,-61 h 118 v 86 87 l -89,-6 c -121,-9 -183,4 -251,51 -40,29 -64,56 -90,103 l -35,64 -3,340 c -3,330 -4,341 -24,363 -18,18 -32,22 -80,22 h -58 z m 3467.881,0 c 0,-382 -2,-403 -57,-511 -33,-65 -114,-149 -177,-185 -83,-47 -146,-61 -278,-61 h -118 v 86 87 l 89,-6 c 121,-9 183,4 251,51 40,29 64,56 90,103 l 35,64 3,340 c 3,330 4,341 24,363 18,18 32,22 80,22 h 58 z"
       id="path6"
       style="fill:#000000;fill-opacity:1;stroke:#005a9c;stroke-dasharray:none;stroke-opacity:1" />
    <path
       d="m 4540,4230 c -107,-81 -198,-157 -203,-168 -24,-52 31,-115 82,-95 38,15 388,279 406,307 30,46 -8,107 -65,105 -16,-1 -95,-54 -220,-149 z m 1317.8238,0 c 107,-81 198,-157 203,-168 24,-52 -31,-115 -82,-95 -38,15 -388,279 -406,307 -30,46 8,107 65,105 16,-1 95,-54 220,-149 z"
       id="path7"
       style="fill:#f74c00;fill-opacity:1"
       transform="matrix(1,0,0,-1,0,8342.2495)" />
    <path
       d="M 3542.625,5221.125 C 3525.25,5221.5 3507.5,5228.5 3493,5242 c -22,20 -23,28 -23,153 v 131 l -67,50 c -37,27 -82,62 -100,78 l -33,28 v 188 188 l 98,75 97,74 5,594 c 4,427 8,600 17,614 6,11 26,34 45,51 42,39 230,171 260,184 31,12 95,12 138,0 19,-6 114,-62 210,-125 96,-63 265,-173 375,-245 l 200,-130 h 116 c 103,0 118,-2 134,-20 26,-29 24,-79 -4,-102 -20,-15 -42,-18 -157,-18 h -134 l -113,73 c -61,41 -166,109 -232,152 -76,50 -130,78 -147,78 -42,0 -68,-29 -69,-77 -2,-69 -11,-82 -107,-155 l -94,-71 h -115 -115 l -34,-34 -34,-34 v -405 -404 l -100,-74 -100,-74 v -117 -117 l 100,-76 100,-77 v -169 c 0,-156 -2,-171 -20,-189 -13,-13 -30,-19.25 -47.375,-18.875 z m 3312.8008,0 c -17.375,-0.375 -34.375,5.875 -47.375,18.875 -18,18 -20,33 -20,189 v 169 l 100,77 100,76 v 117 117 l -100,74 -100,74 v 404 405 l -34,34 -34,34 h -115 -115 l -94,71 c -96,73 -105,86 -107,155 -1,48 -27,77 -69,77 -17,0 -71,-28 -147,-78 -66,-43 -171,-111 -232,-152 l -113,-73 h -134 c -115,0 -137,3 -157,18 -28,23 -30,73 -4,102 16,18 31,20 134,20 h 116 l 200,130 c 110,72 279,182 375,245 96,63 191,119 210,125 43,12 107,12 138,0 30,-13 218,-145 260,-184 19,-17 39,-40 45,-51 9,-14 13,-187 17,-614 l 5,-594 97,-74 98,-75 v -188 -188 l -33,-28 c -18,-16 -63,-51 -100,-78 l -67,-50 v -131 c 0,-125 -1,-133 -23,-153 -14.5,-13.5 -32.25,-20.5 -49.625,-20.875 z M 3680,7160 h 103 c 100,0 106,1 146,30 l 42,31 -3,117 -3,117 -85,2 c -99,2 -101,1 -157,-44 l -43,-34 v -110 z m 2935.0508,0 h 103 v 109 110 l -43,34 c -56,45 -58,46 -157,44 l -85,-2 -3,-117 -3,-117 42,-31 c 40,-29 46,-30 146,-30 z"
       id="path16"
       style="fill:#000000;fill-opacity:1;stroke:#005a9c;stroke-miterlimit:4;stroke-dasharray:none;stroke-opacity:1" />
  </g>
</svg>
