<?xml version="1.0" encoding="UTF-8" standalone="no"?>
<svg
        version="1.0"
        width="385.80502pt"
        height="369.57983pt"
        viewBox="0 0 385.80502 369.57983"
        preserveAspectRatio="xMidYMid"
        id="svg13"
        xmlns="http://www.w3.org/2000/svg"
>
    <defs
            id="defs13"/>
    <g
            transform="matrix(0.1,0,0,-0.1,-327.00002,765.90003)"
            fill="#000000"
            stroke="none"
            id="g13">
        <path
                d="m 3792,7650 c -30,-13 -218,-145 -260,-184 -19,-17 -39,-40 -45,-51 -9,-14 -13,-187 -17,-614 l -5,-594 -97,-74 -98,-75 v -188 -188 l 33,-28 c 18,-16 63,-51 100,-78 l 67,-50 v -131 c 0,-125 1,-133 23,-153 29,-27 71,-28 97,-2 18,18 20,33 20,189 v 169 l -100,77 -100,76 v 117 117 l 100,74 100,74 v 404 405 l 34,34 34,34 h 115 115 l 94,71 c 96,73 105,86 107,155 1,48 27,77 69,77 17,0 71,-28 147,-78 66,-43 171,-111 232,-152 l 113,-73 h 134 c 115,0 137,3 157,18 28,23 30,73 4,102 -16,18 -31,20 -134,20 h -116 l -200,130 c -110,72 -279,182 -375,245 -96,63 -191,119 -210,125 -43,12 -107,12 -138,0 z m 176,-312 3,-117 -42,-31 c -40,-29 -46,-30 -146,-30 h -103 v 109 110 l 43,34 c 56,45 58,46 157,44 l 85,-2 z m 2638.05,312 c 30,-13 218,-145 260,-184 19,-17 39,-40 45,-51 9,-14 13,-187 17,-614 l 5,-594 97,-74 98,-75 v -188 -188 l -33,-28 c -18,-16 -63,-51 -100,-78 l -67,-50 v -131 c 0,-125 -1,-133 -23,-153 -29,-27 -71,-28 -97,-2 -18,18 -20,33 -20,189 v 169 l 100,77 100,76 v 117 117 l -100,74 -100,74 v 404 405 l -34,34 -34,34 h -115 -115 l -94,71 c -96,73 -105,86 -107,155 -1,48 -27,77 -69,77 -17,0 -71,-28 -147,-78 -66,-43 -171,-111 -232,-152 l -113,-73 h -134 c -115,0 -137,3 -157,18 -28,23 -30,73 -4,102 16,18 31,20 134,20 h 116 l 200,130 c 110,72 279,182 375,245 96,63 191,119 210,125 43,12 107,12 138,0 z m -176,-312 -3,-117 42,-31 c 40,-29 46,-30 146,-30 h 103 v 109 110 l -43,34 c -56,45 -58,46 -157,44 l -85,-2 z"
                id="path2"
                style="fill:#e7e7e7;fill-opacity:1"/>
        <path
                d="m 3810,6889 c 0,-11 61,-204 232,-734 222,-689 340,-1034 367,-1077 35,-56 133,-123 200,-137 94,-20 211,21 264,92 39,51 48,72 183,445 70,193 131,352 135,352 4,0 9,-8 12,-17 3,-10 39,-112 82,-228 42,-115 100,-272 127,-348 57,-155 85,-203 143,-245 53,-39 106,-55 176,-54 68,1 117,20 176,68 87,72 83,60 358,924 35,107 117,366 184,574 66,209 121,383 121,388 0,9 -462,9 -534,0 l -48,-7 -48,-165 c -26,-91 -85,-291 -129,-445 -45,-154 -100,-344 -123,-422 -22,-79 -44,-143 -47,-143 -4,0 -35,89 -70,198 -34,108 -99,311 -144,450 l -82,252 -154,-2 -154,-3 -146,-452 c -80,-249 -148,-453 -152,-453 -3,0 -16,37 -28,83 -13,45 -79,271 -147,502 -69,231 -137,461 -151,510 -15,50 -32,93 -38,97 -17,13 -565,10 -565,-3 z"
                id="path4"
                style="fill:#f74c00;fill-opacity:1"/>
        <path
                d="m 6346,5638 c -13,-19 -16,-62 -16,-269 v -246 l -357,-214 c -197,-117 -454,-270 -570,-340 l -213,-128 -127,78 c -71,42 -325,195 -565,340 l -438,262 v 188 c 0,185 0,188 -24,210 -18,17 -41,24 -85,28 l -61,6 2,-269 3,-269 645,-387 c 355,-213 651,-385 659,-382 8,2 159,91 335,196 177,105 449,268 606,361 157,94 302,181 323,194 l 37,23 v 320 320 h -69 c -61,0 -72,-3 -85,-22 z"
                id="path5"
                style="fill:#e7e7e7;fill-opacity:1"/>
        <path
                d="m 3470,4747 c 0,-382 2,-403 57,-511 33,-65 114,-149 177,-185 83,-47 146,-61 278,-61 h 118 v 86 87 l -89,-6 c -121,-9 -183,4 -251,51 -40,29 -64,56 -90,103 l -35,64 -3,340 c -3,330 -4,341 -24,363 -18,18 -32,22 -80,22 h -58 z m 3467.881,0 c 0,-382 -2,-403 -57,-511 -33,-65 -114,-149 -177,-185 -83,-47 -146,-61 -278,-61 h -118 v 86 87 l 89,-6 c 121,-9 183,4 251,51 40,29 64,56 90,103 l 35,64 3,340 c 3,330 4,341 24,363 18,18 32,22 80,22 h 58 z"
                id="path6"
                style="fill:#e7e7e7;fill-opacity:1"/>
        <path
                d="m 4540,4230 c -107,-81 -198,-157 -203,-168 -24,-52 31,-115 82,-95 38,15 388,279 406,307 30,46 -8,107 -65,105 -16,-1 -95,-54 -220,-149 z m 1317.8238,0 c 107,-81 198,-157 203,-168 24,-52 -31,-115 -82,-95 -38,15 -388,279 -406,307 -30,46 8,107 65,105 16,-1 95,-54 220,-149 z"
                id="path7"
                style="fill:#f74c00;fill-opacity:1"
                transform="matrix(1,0,0,-1,0,8342.2495)"/>
    </g>
</svg>
