<svg xmlns="http://www.w3.org/2000/svg" viewBox="0 0 800 420" width="100%" style="font-family: 'Segoe UI', system-ui, -apple-system, sans-serif;">
  <rect width="800" height="420" fill="#1a1a2e" rx="8"/>

  <text x="400" y="28" text-anchor="middle" fill="#ccc" font-size="14" font-weight="600">Bloom: ping-pong размытие</text>

  <defs>
    <marker id="arw" markerWidth="8" markerHeight="6" refX="8" refY="3" orient="auto"><polygon points="0 0, 8 3, 0 6" fill="#778899"/></marker>
    <marker id="arw-green" markerWidth="8" markerHeight="6" refX="8" refY="3" orient="auto"><polygon points="0 0, 8 3, 0 6" fill="#44aa66"/></marker>
    <marker id="arw-loop" markerWidth="8" markerHeight="6" refX="8" refY="3" orient="auto"><polygon points="0 0, 8 3, 0 6" fill="#ddaa44"/></marker>
  </defs>

  <!-- Сцена -->
  <g transform="translate(30, 55)">
    <rect x="0" y="0" width="140" height="70" rx="6" fill="#1a2a3a" stroke="#5588aa" stroke-width="1.5"/>
    <text x="70" y="30" text-anchor="middle" fill="#5588aa" font-size="13" font-weight="600">Сцена</text>
    <text x="70" y="50" text-anchor="middle" fill="#6688aa" font-size="9">HDR render target</text>
  </g>

  <!-- Arrow: Сцена → Выделение яркого -->
  <line x1="170" y1="90" x2="210" y2="90" stroke="#778899" stroke-width="2" marker-end="url(#arw)"/>

  <!-- Выделение яркого -->
  <g transform="translate(218, 55)">
    <rect x="0" y="0" width="150" height="70" rx="6" fill="#1a2a3a" stroke="#5588aa" stroke-width="1.5"/>
    <text x="75" y="30" text-anchor="middle" fill="#5588aa" font-size="12" font-weight="600">Выделение яркого</text>
    <text x="75" y="50" text-anchor="middle" fill="#6688aa" font-size="9">threshold pass</text>
  </g>

  <!-- Arrow: Выделение яркого → Текстура A -->
  <line x1="368" y1="90" x2="418" y2="90" stroke="#44aa66" stroke-width="2" marker-end="url(#arw-green)"/>
  <text x="393" y="80" text-anchor="middle" fill="#66cc88" font-size="8">яркие</text>
  <text x="393" y="105" text-anchor="middle" fill="#66cc88" font-size="8">пиксели</text>

  <!-- Текстура A -->
  <g transform="translate(426, 55)">
    <rect x="0" y="0" width="120" height="70" rx="6" fill="#2a3a2a" stroke="#44aa66" stroke-width="1.5"/>
    <text x="60" y="30" text-anchor="middle" fill="#44aa66" font-size="12" font-weight="600">Текстура A</text>
    <text x="60" y="50" text-anchor="middle" fill="#66cc88" font-size="9">bright pixels</text>
  </g>

  <!-- Ping-pong loop section -->
  <!-- Arrow: Текстура A → Горизонтальное размытие -->
  <line x1="486" y1="125" x2="486" y2="155" stroke="#778899" stroke-width="2" marker-end="url(#arw)"/>

  <!-- Горизонтальное размытие -->
  <g transform="translate(390, 163)">
    <rect x="0" y="0" width="192" height="55" rx="6" fill="#1a2a4a" stroke="#6688cc" stroke-width="1.5"/>
    <text x="96" y="24" text-anchor="middle" fill="#6688cc" font-size="11" font-weight="600">Горизонтальное размытие</text>
    <text x="96" y="42" text-anchor="middle" fill="#88aadd" font-size="9">blur X (Gaussian)</text>
  </g>

  <!-- Arrow: Горизонтальное размытие → Текстура B -->
  <line x1="582" y1="190" x2="632" y2="190" stroke="#44aa66" stroke-width="2" marker-end="url(#arw-green)"/>

  <!-- Текстура B -->
  <g transform="translate(640, 163)">
    <rect x="0" y="0" width="120" height="55" rx="6" fill="#2a3a2a" stroke="#44aa66" stroke-width="1.5"/>
    <text x="60" y="24" text-anchor="middle" fill="#44aa66" font-size="12" font-weight="600">Текстура B</text>
    <text x="60" y="42" text-anchor="middle" fill="#66cc88" font-size="9">blurred X</text>
  </g>

  <!-- Arrow: Текстура B → Вертикальное размытие -->
  <line x1="700" y1="218" x2="700" y2="248" stroke="#778899" stroke-width="2" marker-end="url(#arw)"/>

  <!-- Вертикальное размытие -->
  <g transform="translate(390, 256)">
    <rect x="0" y="0" width="192" height="55" rx="6" fill="#1a2a4a" stroke="#6688cc" stroke-width="1.5"/>
    <text x="96" y="24" text-anchor="middle" fill="#6688cc" font-size="11" font-weight="600">Вертикальное размытие</text>
    <text x="96" y="42" text-anchor="middle" fill="#88aadd" font-size="9">blur Y (Gaussian)</text>
  </g>

  <!-- Arrow: Текстура B down to Вертикальное размытие -->
  <path d="M 700 248 L 700 258 L 582 258 L 582 275" fill="none" stroke="#778899" stroke-width="2" marker-end="url(#arw)"/>

  <!-- Arrow: Вертикальное размытие → Текстура A (up) -->
  <path d="M 390 283 L 360 283 L 360 90 L 418 90" fill="none" stroke="#44aa66" stroke-width="2" marker-end="url(#arw-green)"/>

  <!-- Loop label -->
  <g transform="translate(335, 168)">
    <rect x="-28" y="0" width="24" height="100" rx="4" fill="#2a2a1a" stroke="#ddaa44" stroke-width="1" stroke-dasharray="4,2"/>
    <text x="-16" y="22" text-anchor="middle" fill="#ddaa44" font-size="10" font-weight="600" transform="rotate(-90, -16, 50)">Повтор N раз</text>
  </g>

  <!-- Arrow: Сцена → Объединение (down) -->
  <path d="M 100 125 L 100 355 L 178 355" fill="none" stroke="#778899" stroke-width="2" marker-end="url(#arw)"/>
  <text x="80" y="240" text-anchor="middle" fill="#6688aa" font-size="8" transform="rotate(-90, 80, 240)">исходная сцена</text>

  <!-- Arrow: Текстура A → Объединение (blurred bright) -->
  <path d="M 486 125 L 486 340 L 348 340 L 348 355" fill="none" stroke="#778899" stroke-width="2" marker-end="url(#arw)"/>
  <text x="420" y="332" text-anchor="middle" fill="#6688aa" font-size="8">размытое свечение</text>

  <!-- Объединение -->
  <g transform="translate(186, 325)">
    <rect x="0" y="0" width="152" height="60" rx="6" fill="#2a1a3a" stroke="#aa66cc" stroke-width="1.5"/>
    <text x="76" y="26" text-anchor="middle" fill="#aa66cc" font-size="12" font-weight="600">Объединение</text>
    <text x="76" y="46" text-anchor="middle" fill="#cc88dd" font-size="9">scene + bloom blend</text>
  </g>

  <!-- Arrow: Объединение → Итоговый HDR -->
  <line x1="338" y1="355" x2="398" y2="355" stroke="#778899" stroke-width="2" marker-end="url(#arw)"/>

  <!-- Итоговый HDR -->
  <g transform="translate(406, 325)">
    <rect x="0" y="0" width="140" height="60" rx="6" fill="#3a2a1a" stroke="#ddaa44" stroke-width="1.5"/>
    <text x="70" y="26" text-anchor="middle" fill="#ddaa44" font-size="12" font-weight="600">Итоговый HDR</text>
    <text x="70" y="46" text-anchor="middle" fill="#ddbb66" font-size="9">tone mapping → LDR</text>
  </g>

  <!-- Final note -->
  <text x="400" y="410" text-anchor="middle" fill="#556677" font-size="10">Ping-pong: текстуры A и B чередуются как вход/выход для итераций размытия</text>
</svg>
