<svg xmlns="http://www.w3.org/2000/svg" viewBox="0 0 550 400" width="100%" style="font-family: 'Segoe UI', system-ui, -apple-system, sans-serif;">
  <rect width="550" height="400" fill="#1a1a2e" rx="8"/>

  <!-- Title -->
  <text x="275" y="28" text-anchor="middle" fill="#ccc" font-size="14" font-weight="600">Frustum: область видимости камеры</text>

  <!-- Camera position -->
  <circle cx="120" cy="210" r="5" fill="#fff"/>
  <text x="95" y="230" fill="#fff" font-size="10">камера</text>

  <!-- Near plane -->
  <line x1="195" y1="150" x2="195" y2="270" stroke="#55aa55" stroke-width="2"/>
  <text x="195" y="145" text-anchor="middle" fill="#55aa55" font-size="10">near</text>
  <text x="195" y="285" text-anchor="middle" fill="#55aa55" font-size="9">(0.1)</text>

  <!-- Far plane -->
  <line x1="470" y1="60" x2="470" y2="360" stroke="#dd5555" stroke-width="2"/>
  <text x="470" y="50" text-anchor="middle" fill="#dd5555" font-size="10">far</text>
  <text x="470" y="375" text-anchor="middle" fill="#dd5555" font-size="9">(100.0)</text>

  <!-- Frustum edges -->
  <line x1="120" y1="210" x2="195" y2="150" stroke="#888" stroke-width="1"/>
  <line x1="120" y1="210" x2="195" y2="270" stroke="#888" stroke-width="1"/>
  <line x1="120" y1="210" x2="470" y2="60" stroke="#888" stroke-width="1" stroke-dasharray="4,3"/>
  <line x1="120" y1="210" x2="470" y2="360" stroke="#888" stroke-width="1" stroke-dasharray="4,3"/>

  <!-- Top/bottom labels -->
  <line x1="120" y1="210" x2="340" y2="30" stroke="#555" stroke-width="0.5" stroke-dasharray="2,2"/>
  <line x1="120" y1="210" x2="340" y2="390" stroke="#555" stroke-width="0.5" stroke-dasharray="2,2"/>

  <!-- FOV angle arc -->
  <path d="M 145 185 A 40 40 0 0 1 145 235" fill="none" stroke="#ddaa44" stroke-width="1.5"/>
  <text x="160" y="215" fill="#ddaa44" font-size="10">fov</text>

  <!-- Near plane width -->
  <line x1="198" y1="150" x2="198" y2="270" stroke="#55aa55" stroke-width="0.5"/>
  <text x="215" y="210" fill="#55aa55" font-size="9">h_near</text>

  <!-- Aspect ratio label -->
  <g transform="translate(280, 140)">
    <rect x="0" y="0" width="140" height="55" rx="4" fill="#1e1e30" stroke="#555" stroke-width="0.5"/>
    <text x="70" y="18" text-anchor="middle" fill="#aaa" font-size="10">directx::perspective(fov, aspect, near, far)</text>
    <text x="70" y="35" text-anchor="middle" fill="#888" font-size="9">aspect = width / height</text>
    <text x="70" y="48" text-anchor="middle" fill="#888" font-size="9">fov обычно = π/4 = 45°</text>
  </g>

  <!-- Z axis -->
  <line x1="120" y1="210" x2="490" y2="210" stroke="#444" stroke-width="0.5"/>
  <text x="495" y="214" fill="#666" font-size="10">-Z</text>

  <!-- Objects inside/outside frustum -->
  <rect x="280" y="180" width="20" height="20" rx="2" fill="#44aa66" opacity="0.5"/>
  <text x="283" y="175" fill="#44aa66" font-size="8">видим</text>

  <rect x="250" y="310" width="20" height="20" rx="2" fill="#dd5555" opacity="0.5"/>
  <text x="240" y="340" fill="#dd5555" font-size="8">вне frustum</text>

  <!-- Clipping note -->
  <text x="275" y="392" text-anchor="middle" fill="#888" font-size="10">GPU автоматически отсекает всё, что не попадает в frustum</text>
</svg>
