<svg viewBox="0 0 300 280" xmlns="http://www.w3.org/2000/svg" font-family="monospace" font-size="13">
  <rect width="300" height="280" fill="#fff" rx="8"/>

  <defs>
    <marker id="ax" markerWidth="8" markerHeight="8" refX="7" refY="4" orient="auto">
      <path d="M0,1 L7,4 L0,7" fill="none" stroke="#c04040" stroke-width="1.5"/>
    </marker>
    <marker id="ay" markerWidth="8" markerHeight="8" refX="7" refY="4" orient="auto">
      <path d="M0,1 L7,4 L0,7" fill="none" stroke="#1a8a1a" stroke-width="1.5"/>
    </marker>
    <marker id="az" markerWidth="8" markerHeight="8" refX="7" refY="4" orient="auto">
      <path d="M0,1 L7,4 L0,7" fill="none" stroke="#3070c0" stroke-width="1.5"/>
    </marker>
  </defs>

  <line x1="130" y1="180" x2="230" y2="230" stroke="#c04040" stroke-width="2" marker-end="url(#ax)"/>
  <line x1="130" y1="180" x2="130" y2="40" stroke="#1a8a1a" stroke-width="2" marker-end="url(#ay)"/>
  <line x1="130" y1="180" x2="40" y2="230" stroke="#3070c0" stroke-width="2" marker-end="url(#az)"/>

  <circle cx="130" cy="180" r="4" fill="#333"/>

  <text x="238" y="238" fill="#c04040" font-weight="bold">+X</text>
  <text x="240" y="254" fill="#c04040" font-size="10">вправо</text>

  <text x="120" y="30" fill="#1a8a1a" font-weight="bold">+Y</text>
  <text x="108" y="16" fill="#1a8a1a" font-size="10">вверх</text>

  <text x="14" y="238" fill="#3070c0" font-weight="bold">+Z</text>
  <text x="8" y="254" fill="#3070c0" font-size="10">на нас</text>

  <text x="138" y="192" fill="#555" font-size="11">O</text>

  <rect x="50" y="260" width="8" height="8" fill="#c04040" rx="1"/>
  <text x="62" y="269" fill="#555" font-size="10">X</text>
  <rect x="110" y="260" width="8" height="8" fill="#1a8a1a" rx="1"/>
  <text x="122" y="269" fill="#555" font-size="10">Y</text>
  <rect x="170" y="260" width="8" height="8" fill="#3070c0" rx="1"/>
  <text x="182" y="269" fill="#555" font-size="10">Z</text>
</svg>
