<svg viewBox="0 0 520 100" xmlns="http://www.w3.org/2000/svg" font-family="system-ui,-apple-system,sans-serif" font-size="13">
  <rect width="520" height="100" fill="#fff" rx="8"/>
  <g>
    <rect x="20" y="25" width="70" height="40" fill="#4a9eff" fill-opacity="0.15" stroke="#3070c0" stroke-width="1.5" rx="3"/>
    <rect x="95" y="25" width="70" height="40" fill="#4a9eff" fill-opacity="0.15" stroke="#3070c0" stroke-width="1.5" rx="3"/>
    <rect x="170" y="25" width="70" height="40" fill="#ff6b6b" fill-opacity="0.15" stroke="#c04040" stroke-width="1.5" rx="3"/>
    <rect x="245" y="25" width="70" height="40" fill="#ff6b6b" fill-opacity="0.15" stroke="#c04040" stroke-width="1.5" rx="3"/>
    <rect x="320" y="25" width="70" height="40" fill="#ff6b6b" fill-opacity="0.15" stroke="#c04040" stroke-width="1.5" rx="3"/>
    <rect x="395" y="25" width="70" height="40" fill="#22aa22" fill-opacity="0.15" stroke="#1a8a1a" stroke-width="1.5" rx="3"/>
  </g>
  <g text-anchor="middle" font-size="12" fill="#222">
    <text x="55" y="50">V0</text>
    <text x="130" y="50">V1</text>
    <text x="205" y="50">V2</text>
    <text x="280" y="50">V0</text>
    <text x="355" y="50">V2</text>
    <text x="430" y="50">V3</text>
  </g>
  <path d="M20,75 L20,68 L240,68 L240,75" fill="none" stroke="#3070c0" stroke-width="2"/>
  <text x="100" y="90" fill="#3070c0" font-size="13" font-weight="bold">△₁</text>
  <path d="M245,75 L245,68 L465,68 L465,75" fill="none" stroke="#c04040" stroke-width="2"/>
  <text x="325" y="90" fill="#c04040" font-size="13" font-weight="bold">△₂</text>
</svg>
