<svg viewBox="0 0 500 120" xmlns="http://www.w3.org/2000/svg" font-family="monospace" font-size="12">
  <rect width="500" height="120" fill="#fff" rx="8"/>
  <g fill="#555" font-size="10">
    <text x="20" y="20">0</text>
    <text x="80" y="20">4</text>
    <text x="140" y="20">8</text>
    <text x="200" y="20">12</text>
    <text x="260" y="20">16</text>
    <text x="320" y="20">20</text>
  </g>
  <g>
    <rect x="20" y="28" width="120" height="28" fill="#4a9eff" fill-opacity="0.15" stroke="#3070c0" stroke-width="1.5" rx="3"/>
    <rect x="140" y="28" width="180" height="28" fill="#ff6b6b" fill-opacity="0.15" stroke="#c04040" stroke-width="1.5" rx="3"/>
  </g>
  <text x="40" y="47" fill="#222">pos.x</text>
  <text x="80" y="47" fill="#222">pos.y</text>
  <text x="160" y="47" fill="#222">col.r</text>
  <text x="220" y="47" fill="#222">col.g</text>
  <text x="280" y="47" fill="#222">col.b</text>
  <path d="M20,68 L20,62 L140,62 L140,68" fill="none" stroke="#3070c0" stroke-width="1.5"/>
  <text x="55" y="80" fill="#3070c0" font-size="11">@location(0)</text>
  <path d="M140,68 L140,62 L320,62 L320,68" fill="none" stroke="#c04040" stroke-width="1.5"/>
  <text x="195" y="80" fill="#c04040" font-size="11">@location(1)</text>
  <path d="M20,92 L20,86 L320,86 L320,92" fill="none" stroke="#555" stroke-width="1"/>
  <text x="120" y="104" fill="#444" font-size="11">array_stride = 20 байт</text>
</svg>
